<?xml version="1.0" encoding="iso-8859-1"?>
<!-- Generator: Adobe Illustrator 19.0.0, SVG Export Plug-In . SVG Version: 6.00 Build 0)  -->
<svg version="1.1" id="Capa_1" xmlns="http://www.w3.org/2000/svg" xmlns:xlink="http://www.w3.org/1999/xlink" x="0px" y="0px"
	 viewBox="0 0 512 512" style="enable-background:new 0 0 512 512;" xml:space="preserve">
<g>
	<path style="fill:#E92B5F;" d="M432,512H80c-35.344,0-64-28.656-64-64V224l240,112l240-112v224C496,483.344,467.344,512,432,512z"
		/>
	<path style="opacity:0.4;fill:#E92B5F;enable-background:new    ;" d="M400,0H112C94.32,0,80,14.32,80,32v176l176,80l176-80V32
		C432,14.32,417.68,0,400,0z M336,160H176c-8.832,0-16-7.168-16-16s7.168-16,16-16h160c8.832,0,16,7.168,16,16S344.832,160,336,160z
		 M336,96H176c-8.832,0-16-7.168-16-16s7.168-16,16-16h160c8.832,0,16,7.168,16,16S344.832,96,336,96z"/>
</g>
<g>
</g>
<g>
</g>
<g>
</g>
<g>
</g>
<g>
</g>
<g>
</g>
<g>
</g>
<g>
</g>
<g>
</g>
<g>
</g>
<g>
</g>
<g>
</g>
<g>
</g>
<g>
</g>
<g>
</g>
</svg>
